<mxfile host="65bd71144e">
    <diagram name="Page-1" id="8-w-KmkihSFErgzN6IgH">
        <mxGraphModel dx="3868" dy="3136" grid="0" gridSize="10" guides="1" tooltips="1" connect="1" arrows="1" fold="1" page="0" pageScale="1" pageWidth="827" pageHeight="1169" math="1" shadow="0">
            <root>
                <mxCell id="0"/>
                <mxCell id="1" parent="0"/>
                <mxCell id="158" value="&lt;div&gt;&lt;b&gt;&lt;font style=&quot;font-size: 20px;&quot;&gt;Workload Identity Federation for GKE&lt;/font&gt;&lt;/b&gt;&lt;br&gt;&lt;/div&gt;&lt;div&gt;&lt;br&gt;&lt;/div&gt;&lt;div&gt;1. create IAM Service Account&lt;/div&gt;&lt;div&gt;gcloud iam service-accounts create iam-sa \&lt;/div&gt;&lt;div&gt;&amp;nbsp; &amp;nbsp; --display-name=&quot;My Service Account&quot; \&lt;/div&gt;&lt;div&gt;&amp;nbsp; &amp;nbsp; --description=&quot;Service account for my application&quot;&lt;/div&gt;&lt;div&gt;&lt;br&gt;&lt;/div&gt;&lt;div&gt;2. create k8s Service Account&lt;/div&gt;&lt;div&gt;k create serviceaccount k8s-sa&lt;br&gt;&lt;br&gt;3. create pod&lt;br&gt;&lt;div style=&quot;border-color: var(--border-color);&quot;&gt;ak apply -f - &amp;lt;&amp;lt;EOF&amp;nbsp;&lt;/div&gt;&lt;div style=&quot;border-color: var(--border-color);&quot;&gt;apiVersion: v1&lt;/div&gt;&lt;div style=&quot;border-color: var(--border-color);&quot;&gt;kind: Pod&lt;/div&gt;&lt;div style=&quot;border-color: var(--border-color);&quot;&gt;metadata:&lt;/div&gt;&lt;div style=&quot;border-color: var(--border-color);&quot;&gt;&amp;nbsp; name: my-pod&lt;/div&gt;&lt;div style=&quot;border-color: var(--border-color);&quot;&gt;&amp;nbsp; namespace: default&lt;/div&gt;&lt;div style=&quot;border-color: var(--border-color);&quot;&gt;spec:&lt;/div&gt;&lt;div style=&quot;border-color: var(--border-color);&quot;&gt;&amp;nbsp; containers:&lt;/div&gt;&lt;div style=&quot;border-color: var(--border-color);&quot;&gt;&amp;nbsp; - image: google/cloud-sdk:slim&lt;/div&gt;&lt;div style=&quot;border-color: var(--border-color);&quot;&gt;&amp;nbsp; &amp;nbsp; name:&amp;nbsp;pod&lt;/div&gt;&lt;div style=&quot;border-color: var(--border-color);&quot;&gt;&amp;nbsp; &amp;nbsp; command: [&quot;sleep&quot;,&quot;infinity&quot;]&lt;/div&gt;&lt;div style=&quot;border-color: var(--border-color);&quot;&gt;&amp;nbsp; nodeSelector:&lt;/div&gt;&lt;div style=&quot;border-color: var(--border-color);&quot;&gt;&amp;nbsp; &amp;nbsp; iam.gke.io/gke-metadata-server-enabled: &quot;true&quot;&lt;/div&gt;&lt;div style=&quot;border-color: var(--border-color);&quot;&gt;EOF&lt;/div&gt;&amp;nbsp;&lt;/div&gt;&lt;div&gt;&lt;br&gt;&lt;/div&gt;&lt;div&gt;&lt;div style=&quot;border-color: var(--border-color);&quot;&gt;4. Assign&amp;nbsp;&lt;span style=&quot;border-color: var(--border-color);&quot;&gt;Workload Identity User to k8s SA on the IAM SA&lt;/span&gt;&lt;/div&gt;&lt;div style=&quot;border-color: var(--border-color);&quot;&gt;&lt;div style=&quot;border-color: var(--border-color);&quot;&gt;gcloud iam service-accounts add-iam-policy-binding iam-sa@GCP_PROJECT_ID.iam.gserviceaccount.com \&lt;/div&gt;&lt;div style=&quot;border-color: var(--border-color);&quot;&gt;&amp;nbsp; &amp;nbsp; --project GCP_PROJECT_ID \&lt;/div&gt;&lt;div style=&quot;border-color: var(--border-color);&quot;&gt;&amp;nbsp; &amp;nbsp; --role roles/iam.workloadIdentityUser \&lt;/div&gt;&lt;div style=&quot;border-color: var(--border-color);&quot;&gt;&amp;nbsp; &amp;nbsp; --member &quot;serviceAccount:GCP_PROJECT_ID.svc.id.goog[default/k8s-sa]&quot;&lt;/div&gt;&lt;/div&gt;&lt;/div&gt;&lt;div&gt;&lt;br&gt;&lt;/div&gt;&lt;div&gt;&lt;br&gt;&lt;/div&gt;&lt;div&gt;5. annotate k8s SA with the GCP SA&lt;/div&gt;&lt;div&gt;&lt;div&gt;k annotate serviceaccount k8s-sa iam.gke.io/gcp-service-account=iam-sa@GCP_PROJECT_ID.iam.gserviceaccount.com&lt;/div&gt;&lt;/div&gt;&lt;div&gt;&lt;br&gt;&lt;/div&gt;&lt;div&gt;6. annotate the k8s pod with the k8s sa&lt;br&gt;&lt;div style=&quot;border-color: var(--border-color);&quot;&gt;&lt;div style=&quot;border-color: var(--border-color);&quot;&gt;k annotate pod&amp;nbsp;&amp;nbsp;my-pod serviceAccountName= k8s-sa&lt;/div&gt;&lt;/div&gt;&lt;div style=&quot;border-color: var(--border-color);&quot;&gt;&lt;br style=&quot;border-color: var(--border-color);&quot;&gt;&lt;/div&gt;&lt;/div&gt;&lt;div&gt;&lt;div&gt;&lt;br&gt;&lt;/div&gt;&lt;div&gt;&lt;br&gt;&lt;/div&gt;&lt;div&gt;Access the pod&lt;/div&gt;&lt;/div&gt;&lt;div&gt;ak exec -it my-pod -- /bin/bash&lt;br&gt;&lt;/div&gt;&lt;div&gt;&lt;br&gt;&lt;/div&gt;&lt;div&gt;&lt;br&gt;&lt;/div&gt;&lt;div&gt;&lt;br&gt;&lt;/div&gt;&lt;div&gt;&lt;br&gt;&lt;/div&gt;&lt;div&gt;&lt;b style=&quot;border-color: var(--border-color);&quot;&gt;&lt;font style=&quot;border-color: var(--border-color); font-size: 20px;&quot;&gt;Workload Identity Federation for GKE, updated on April 2024&lt;/font&gt;&lt;/b&gt;&lt;br&gt;&lt;/div&gt;&lt;div&gt;&lt;br&gt;&lt;/div&gt;&lt;div&gt;&lt;span style=&quot;font-size: 20px;&quot;&gt;It's possible to assgin IAM role to k8s Service Account directly, so we don't need IAM Service Account&lt;/span&gt;&lt;/div&gt;&lt;div&gt;&lt;br&gt;&lt;/div&gt;&lt;div&gt;You can find the k8s SA in IAM by&lt;/div&gt;&lt;div&gt;&lt;br&gt;&lt;/div&gt;&lt;div&gt;&lt;div&gt;gcloud projects add-iam-policy-binding projects/GCP_PROJECT_ID \&lt;/div&gt;&lt;div&gt;&amp;nbsp; &amp;nbsp; --role=roles/ROLE \&lt;/div&gt;&lt;div&gt;&amp;nbsp; &amp;nbsp; --member=principal://iam.googleapis.com/projects/GCP_PROJECT_NUMBER/locations/global/workloadIdentityPools/GCP_PROJECT_ID.svc.id.goog/subject/ns/NAMESPACE/sa/SERVICE_ACCOUNT&lt;/div&gt;&lt;/div&gt;" style="text;html=1;strokeColor=none;fillColor=none;align=left;verticalAlign=top;whiteSpace=wrap;rounded=0;fontSize=16;labelBackgroundColor=default;" parent="1" vertex="1">
                    <mxGeometry x="90" y="1092" width="1473" height="1189" as="geometry"/>
                </mxCell>
                <mxCell id="143" value="&lt;div style=&quot;&quot;&gt;&lt;br&gt;&lt;/div&gt;" style="rounded=1;whiteSpace=wrap;html=1;fillColor=none;align=left;movable=0;resizable=0;rotatable=0;deletable=0;editable=0;connectable=0;" parent="1" vertex="1">
                    <mxGeometry y="-17" width="3859" height="1040" as="geometry"/>
                </mxCell>
                <mxCell id="136" value="&lt;div style=&quot;&quot;&gt;&lt;br&gt;&lt;/div&gt;" style="rounded=1;whiteSpace=wrap;html=1;fillColor=none;align=left;" parent="1" vertex="1">
                    <mxGeometry x="127" y="220" width="385" height="396" as="geometry"/>
                </mxCell>
                <mxCell id="141" style="edgeStyle=none;html=1;fontSize=16;entryX=0.5;entryY=0;entryDx=0;entryDy=0;entryPerimeter=0;" parent="1" source="133" target="135" edge="1">
                    <mxGeometry relative="1" as="geometry">
                        <mxPoint x="183" y="696" as="targetPoint"/>
                    </mxGeometry>
                </mxCell>
                <mxCell id="133" value="Pod" style="sketch=0;html=1;dashed=0;whitespace=wrap;fillColor=#2875E2;strokeColor=#ffffff;points=[[0.005,0.63,0],[0.1,0.2,0],[0.9,0.2,0],[0.5,0,0],[0.995,0.63,0],[0.72,0.99,0],[0.5,1,0],[0.28,0.99,0]];verticalLabelPosition=bottom;align=center;verticalAlign=top;shape=mxgraph.kubernetes.icon;prIcon=pod" parent="1" vertex="1">
                    <mxGeometry x="248" y="344" width="50" height="48" as="geometry"/>
                </mxCell>
                <mxCell id="144" style="edgeStyle=none;html=1;exitX=0.5;exitY=1;exitDx=0;exitDy=0;exitPerimeter=0;entryX=0.5;entryY=0;entryDx=0;entryDy=0;entryPerimeter=0;fontSize=16;" parent="1" source="135" target="142" edge="1">
                    <mxGeometry relative="1" as="geometry"/>
                </mxCell>
                <mxCell id="135" value="k8s Service Account" style="sketch=0;html=1;dashed=0;whitespace=wrap;fillColor=#2875E2;strokeColor=#ffffff;points=[[0.005,0.63,0],[0.1,0.2,0],[0.9,0.2,0],[0.5,0,0],[0.995,0.63,0],[0.72,0.99,0],[0.5,1,0],[0.28,0.99,0]];verticalLabelPosition=bottom;align=center;verticalAlign=top;shape=mxgraph.kubernetes.icon;prIcon=sa" parent="1" vertex="1">
                    <mxGeometry x="248" y="501" width="50" height="48" as="geometry"/>
                </mxCell>
                <mxCell id="137" value="&lt;font style=&quot;font-size: 16px;&quot;&gt;GKE cluster&lt;/font&gt;" style="text;html=1;strokeColor=none;fillColor=none;align=center;verticalAlign=middle;whiteSpace=wrap;rounded=0;" parent="1" vertex="1">
                    <mxGeometry x="127" y="190" width="114" height="30" as="geometry"/>
                </mxCell>
                <mxCell id="142" value="IAM Service Account" style="sketch=0;html=1;dashed=0;whitespace=wrap;fillColor=#2875E2;strokeColor=#ffffff;points=[[0.005,0.63,0],[0.1,0.2,0],[0.9,0.2,0],[0.5,0,0],[0.995,0.63,0],[0.72,0.99,0],[0.5,1,0],[0.28,0.99,0]];verticalLabelPosition=bottom;align=center;verticalAlign=top;shape=mxgraph.kubernetes.icon;prIcon=sa" parent="1" vertex="1">
                    <mxGeometry x="248" y="838" width="50" height="48" as="geometry"/>
                </mxCell>
                <mxCell id="145" value="Workload Identity User" style="sketch=0;html=1;dashed=0;whitespace=wrap;fillColor=#2875E2;strokeColor=#ffffff;points=[[0.005,0.63,0],[0.1,0.2,0],[0.9,0.2,0],[0.5,0,0],[0.995,0.63,0],[0.72,0.99,0],[0.5,1,0],[0.28,0.99,0]];verticalLabelPosition=bottom;align=center;verticalAlign=top;shape=mxgraph.kubernetes.icon;prIcon=role;fontSize=16;" parent="1" vertex="1">
                    <mxGeometry x="194" y="744" width="50" height="48" as="geometry"/>
                </mxCell>
                <mxCell id="146" value="&lt;font style=&quot;font-size: 26px;&quot;&gt;GCP Project&lt;/font&gt;" style="text;html=1;strokeColor=none;fillColor=none;align=center;verticalAlign=middle;whiteSpace=wrap;rounded=0;fontSize=26;fontStyle=1" parent="1" vertex="1">
                    <mxGeometry x="72" y="87" width="239" height="32" as="geometry"/>
                </mxCell>
                <mxCell id="147" value="&lt;div style=&quot;&quot;&gt;&lt;br&gt;&lt;/div&gt;" style="rounded=1;whiteSpace=wrap;html=1;fillColor=none;align=left;" parent="1" vertex="1">
                    <mxGeometry x="634" y="220" width="302" height="396" as="geometry"/>
                </mxCell>
                <mxCell id="150" style="edgeStyle=none;html=1;fontSize=16;entryX=0.5;entryY=0;entryDx=0;entryDy=0;entryPerimeter=0;" parent="1" source="151" target="152" edge="1">
                    <mxGeometry relative="1" as="geometry">
                        <mxPoint x="694" y="696" as="targetPoint"/>
                    </mxGeometry>
                </mxCell>
                <mxCell id="151" value="Pod" style="sketch=0;html=1;dashed=0;whitespace=wrap;fillColor=#2875E2;strokeColor=#ffffff;points=[[0.005,0.63,0],[0.1,0.2,0],[0.9,0.2,0],[0.5,0,0],[0.995,0.63,0],[0.72,0.99,0],[0.5,1,0],[0.28,0.99,0]];verticalLabelPosition=bottom;align=center;verticalAlign=top;shape=mxgraph.kubernetes.icon;prIcon=pod" parent="1" vertex="1">
                    <mxGeometry x="759" y="344" width="50" height="48" as="geometry"/>
                </mxCell>
                <mxCell id="152" value="k8s Service Account" style="sketch=0;html=1;dashed=0;whitespace=wrap;fillColor=#2875E2;strokeColor=#ffffff;points=[[0.005,0.63,0],[0.1,0.2,0],[0.9,0.2,0],[0.5,0,0],[0.995,0.63,0],[0.72,0.99,0],[0.5,1,0],[0.28,0.99,0]];verticalLabelPosition=bottom;align=center;verticalAlign=top;shape=mxgraph.kubernetes.icon;prIcon=sa" parent="1" vertex="1">
                    <mxGeometry x="759" y="501" width="50" height="48" as="geometry"/>
                </mxCell>
                <mxCell id="154" style="edgeStyle=none;html=1;entryX=0.995;entryY=0.63;entryDx=0;entryDy=0;entryPerimeter=0;fontSize=16;" parent="1" source="153" target="142" edge="1">
                    <mxGeometry relative="1" as="geometry"/>
                </mxCell>
                <mxCell id="155" style="edgeStyle=none;html=1;entryX=0.5;entryY=1;entryDx=0;entryDy=0;entryPerimeter=0;fontSize=16;" parent="1" source="153" target="152" edge="1">
                    <mxGeometry relative="1" as="geometry"/>
                </mxCell>
                <mxCell id="153" value="IAM Role" style="sketch=0;html=1;dashed=0;whitespace=wrap;fillColor=#2875E2;strokeColor=#ffffff;points=[[0.005,0.63,0],[0.1,0.2,0],[0.9,0.2,0],[0.5,0,0],[0.995,0.63,0],[0.72,0.99,0],[0.5,1,0],[0.28,0.99,0]];verticalLabelPosition=bottom;align=center;verticalAlign=top;shape=mxgraph.kubernetes.icon;prIcon=role;fontSize=16;" parent="1" vertex="1">
                    <mxGeometry x="561" y="899" width="50" height="48" as="geometry"/>
                </mxCell>
                <mxCell id="159" value="&lt;font style=&quot;font-size: 16px;&quot;&gt;GKE cluster&lt;/font&gt;" style="text;html=1;strokeColor=none;fillColor=none;align=center;verticalAlign=middle;whiteSpace=wrap;rounded=0;" parent="1" vertex="1">
                    <mxGeometry x="647" y="188" width="114" height="30" as="geometry"/>
                </mxCell>
                <mxCell id="160" value="annotate k8s sa" style="text;html=1;strokeColor=none;fillColor=none;align=center;verticalAlign=middle;whiteSpace=wrap;rounded=0;labelBackgroundColor=none;" parent="1" vertex="1">
                    <mxGeometry x="294" y="387" width="157" height="30" as="geometry"/>
                </mxCell>
                <mxCell id="161" value="&lt;div&gt;&lt;b&gt;&lt;font style=&quot;font-size: 20px;&quot;&gt;GCP IAM Service Account Impersonation&lt;/font&gt;&lt;/b&gt;&lt;br&gt;&lt;/div&gt;&lt;div&gt;&lt;br&gt;&lt;/div&gt;" style="text;html=1;strokeColor=none;fillColor=none;align=left;verticalAlign=top;whiteSpace=wrap;rounded=0;fontSize=16;labelBackgroundColor=default;" vertex="1" parent="1">
                    <mxGeometry x="1251" y="1079" width="1440" height="716" as="geometry"/>
                </mxCell>
                <mxCell id="165" value="Impersonate" style="edgeStyle=none;html=1;fontSize=26;" edge="1" parent="1" source="162" target="163">
                    <mxGeometry relative="1" as="geometry"/>
                </mxCell>
                <mxCell id="162" value="IAM Service Account 1" style="sketch=0;html=1;dashed=0;whitespace=wrap;fillColor=#2875E2;strokeColor=#ffffff;points=[[0.005,0.63,0],[0.1,0.2,0],[0.9,0.2,0],[0.5,0,0],[0.995,0.63,0],[0.72,0.99,0],[0.5,1,0],[0.28,0.99,0]];verticalLabelPosition=bottom;align=center;verticalAlign=top;shape=mxgraph.kubernetes.icon;prIcon=sa" vertex="1" parent="1">
                    <mxGeometry x="1131" y="576" width="75" height="48" as="geometry"/>
                </mxCell>
                <mxCell id="163" value="IAM Service Account 2" style="sketch=0;html=1;dashed=0;whitespace=wrap;fillColor=#2875E2;strokeColor=#ffffff;points=[[0.005,0.63,0],[0.1,0.2,0],[0.9,0.2,0],[0.5,0,0],[0.995,0.63,0],[0.72,0.99,0],[0.5,1,0],[0.28,0.99,0]];verticalLabelPosition=bottom;align=center;verticalAlign=top;shape=mxgraph.kubernetes.icon;prIcon=sa" vertex="1" parent="1">
                    <mxGeometry x="1507" y="576" width="50" height="48" as="geometry"/>
                </mxCell>
                <mxCell id="168" style="edgeStyle=elbowEdgeStyle;html=1;fontSize=26;dashed=1;strokeWidth=2;endArrow=none;endFill=0;entryX=0.5;entryY=0;entryDx=0;entryDy=0;entryPerimeter=0;" edge="1" parent="1" source="166" target="162">
                    <mxGeometry relative="1" as="geometry">
                        <Array as="points">
                            <mxPoint x="1164" y="522"/>
                        </Array>
                    </mxGeometry>
                </mxCell>
                <mxCell id="166" value="Service Account Token Creator" style="sketch=0;html=1;dashed=0;whitespace=wrap;fillColor=#2875E2;strokeColor=#ffffff;points=[[0.005,0.63,0],[0.1,0.2,0],[0.9,0.2,0],[0.5,0,0],[0.995,0.63,0],[0.72,0.99,0],[0.5,1,0],[0.28,0.99,0]];verticalLabelPosition=bottom;align=center;verticalAlign=top;shape=mxgraph.kubernetes.icon;prIcon=role;fontSize=16;" vertex="1" parent="1">
                    <mxGeometry x="1257" y="444" width="50" height="48" as="geometry"/>
                </mxCell>
            </root>
        </mxGraphModel>
    </diagram>
</mxfile>